<?xml version="1.0" encoding="utf-8"?>
<!-- Generator: Adobe Illustrator 17.0.0, SVG Export Plug-In . SVG Version: 6.00 Build 0)  -->
<!DOCTYPE svg PUBLIC "-//W3C//DTD SVG 1.1//EN" "http://www.w3.org/Graphics/SVG/1.1/DTD/svg11.dtd">
<svg version="1.1" xmlns="http://www.w3.org/2000/svg" xmlns:xlink="http://www.w3.org/1999/xlink" x="0px" y="0px"
	 width="214.159px" height="25.776px" viewBox="0 0 214.159 25.776" enable-background="new 0 0 214.159 25.776"
	 xml:space="preserve">
<g id="Layer_1">
	<g>
		<rect x="2" y="4.307" fill="none" width="214.159" height="19.469"/>
		<path fill="#0E1131" d="M3.656,4.305h5.304l4.008,11.785h0.048l3.792-11.785h5.305v17.138h-3.528V9.298h-0.048l-4.201,12.145
			h-2.904l-4.2-12.025H7.185v12.025H3.656V4.305z"/>
		<path fill="#0E1131" d="M30.105,4.305h3.864l6.409,17.138h-3.912l-1.296-3.816H28.76l-1.344,3.816H23.6L30.105,4.305z
			 M29.745,14.818h4.44l-2.16-6.289h-0.048L29.745,14.818z"/>
		<path fill="#0E1131" d="M41.864,4.305h3.744l7.153,11.497h0.048V4.305h3.528v17.138h-3.769L45.441,9.97h-0.048v11.473h-3.528
			V4.305z"/>
		<path fill="#0E1131" d="M59.648,4.305h7.393c4.44,0,7.777,2.785,7.777,8.473c0,4.968-2.544,8.665-7.777,8.665h-7.393V4.305z
			 M63.416,18.274h3.36c2.184,0,4.272-1.344,4.272-5.136c0-3.457-1.2-5.665-4.944-5.665h-2.688V18.274z"/>
		<path fill="#0E1131" d="M82.112,4.305h3.864l6.409,17.138h-3.912l-1.296-3.816h-6.409l-1.344,3.816h-3.816L82.112,4.305z
			 M81.753,14.818h4.44l-2.16-6.289h-0.048L81.753,14.818z"/>
		<path fill="#0E1131" d="M93.872,4.305h9.241c3.072,0,5.017,2.136,5.017,4.729c0,2.016-0.816,3.528-2.712,4.296v0.048
			c1.848,0.48,2.376,2.28,2.496,4.008c0.072,1.08,0.048,3.096,0.72,4.056h-3.769c-0.456-1.08-0.408-2.736-0.6-4.104
			c-0.264-1.8-0.96-2.592-2.856-2.592H97.64v6.697h-3.768V4.305z M97.64,12.058h4.128c1.68,0,2.592-0.72,2.592-2.448
			c0-1.656-0.912-2.376-2.592-2.376H97.64V12.058z"/>
		<path fill="#0E1131" d="M120.44,15.754c0,2.28,1.776,3.168,3.792,3.168c1.32,0,3.336-0.384,3.336-2.136
			c0-1.848-2.568-2.16-5.088-2.833c-2.544-0.672-5.112-1.656-5.112-4.872c0-3.504,3.312-5.185,6.408-5.185
			c3.576,0,6.865,1.56,6.865,5.521h-3.648c-0.12-2.064-1.584-2.592-3.384-2.592c-1.2,0-2.592,0.504-2.592,1.944
			c0,1.32,0.816,1.488,5.113,2.592c1.248,0.312,5.088,1.104,5.088,4.993c0,3.144-2.472,5.497-7.129,5.497
			c-3.792,0-7.345-1.873-7.296-6.097H120.44z"/>
		<path fill="#0E1131" d="M141.128,3.897c5.304,0,8.425,3.96,8.425,9.049c0,4.944-3.121,8.905-8.425,8.905
			c-5.305,0-8.425-3.96-8.425-8.905C132.703,7.858,135.823,3.897,141.128,3.897z M141.128,18.683c3.384,0,4.656-2.88,4.656-5.736
			c0-3-1.272-5.881-4.656-5.881s-4.657,2.88-4.657,5.881C136.471,15.802,137.744,18.683,141.128,18.683z"/>
		<path fill="#0E1131" d="M152.119,4.305h3.768v6.577h6.937V4.305h3.769v17.138h-3.769V14.05h-6.937v7.393h-3.768V4.305z"/>
		<path fill="#0E1131" d="M177.584,3.897c5.305,0,8.425,3.96,8.425,9.049c0,4.944-3.12,8.905-8.425,8.905s-8.425-3.96-8.425-8.905
			C169.159,7.858,172.279,3.897,177.584,3.897z M177.584,18.683c3.384,0,4.656-2.88,4.656-5.736c0-3-1.272-5.881-4.656-5.881
			c-3.385,0-4.656,2.88-4.656,5.881C172.927,15.802,174.199,18.683,177.584,18.683z"/>
		<path fill="#0E1131" d="M188.575,4.305h3.744l7.152,11.497h0.049V4.305h3.528v17.138h-3.769L192.151,9.97h-0.048v11.473h-3.528
			V4.305z"/>
		<path fill="#0E1131" d="M206.359,4.305h3.769v17.138h-3.769V4.305z"/>
	</g>
</g>
<g id="Layer_2">
</g>
</svg>
