<?xml version="1.0" encoding="utf-8"?>
<!-- Generator: Adobe Illustrator 17.0.0, SVG Export Plug-In . SVG Version: 6.00 Build 0)  -->
<!DOCTYPE svg PUBLIC "-//W3C//DTD SVG 1.1//EN" "http://www.w3.org/Graphics/SVG/1.1/DTD/svg11.dtd">
<svg version="1.1" id="Layer_1" xmlns="http://www.w3.org/2000/svg" xmlns:xlink="http://www.w3.org/1999/xlink" x="0px" y="0px"
	 width="319.051px" height="175px" viewBox="0 0 319.051 175" enable-background="new 0 0 319.051 175" xml:space="preserve">
<g>
	<g>
		
			<linearGradient id="SVGID_1_" gradientUnits="userSpaceOnUse" x1="1236" y1="87.5" x2="1378.6426" y2="87.5" gradientTransform="matrix(-1 0 0 1 1555.0508 0)">
			<stop  offset="0" style="stop-color:#F79554"/>
			<stop  offset="0.5" style="stop-color:#F27623"/>
			<stop  offset="1" style="stop-color:#D4632A"/>
		</linearGradient>
		<polygon fill="url(#SVGID_1_)" points="249.101,175 319.051,175 249.101,0 176.408,0 		"/>
		
			<linearGradient id="SVGID_2_" gradientUnits="userSpaceOnUse" x1="1305.9502" y1="87.5" x2="1441.7339" y2="87.5" gradientTransform="matrix(-1 0 0 1 1555.0508 0)">
			<stop  offset="0" style="stop-color:#5C58A6"/>
			<stop  offset="0.5" style="stop-color:#2F358F"/>
			<stop  offset="1" style="stop-color:#484475"/>
		</linearGradient>
		<polygon fill="url(#SVGID_2_)" points="113.317,175 183.267,175 249.101,0 176.408,0 		"/>
		
			<linearGradient id="SVGID_3_" gradientUnits="userSpaceOnUse" x1="1380.0137" y1="112" x2="1506.1987" y2="112" gradientTransform="matrix(-1 0 0 1 1555.0508 0)">
			<stop  offset="0" style="stop-color:#F79554"/>
			<stop  offset="0.5" style="stop-color:#F27623"/>
			<stop  offset="1" style="stop-color:#D4632A"/>
		</linearGradient>
		<polygon fill="url(#SVGID_3_)" points="105.088,175 175.037,175 121.543,49 48.852,49 		"/>
		
			<linearGradient id="SVGID_4_" gradientUnits="userSpaceOnUse" x1="86" y1="112" x2="204.5845" y2="112" gradientTransform="matrix(1 0 0 1 -86 0)">
			<stop  offset="0" style="stop-color:#5C58A6"/>
			<stop  offset="0.5" style="stop-color:#2F358F"/>
			<stop  offset="1" style="stop-color:#484475"/>
		</linearGradient>
		<polygon fill="url(#SVGID_4_)" points="69.95,175 0,175 45.893,49 118.584,49 		"/>
	</g>
</g>
<g>
	<g>
		<polygon fill="#212121" points="245.149,584.949 315.1,584.91 245.052,409.949 172.359,409.99 		"/>
		<polygon opacity="0.98" fill="#333333" points="109.366,585.026 179.315,584.986 245.052,409.949 172.359,409.99 		"/>
		<polygon fill="#212121" points="101.137,585.03 171.086,584.991 117.522,459.022 44.831,459.063 		"/>
		<polygon opacity="0.98" fill="#333333" points="65.999,585.051 -3.951,585.09 41.872,459.064 114.563,459.023 		"/>
	</g>
</g>
<g>
</g>
<g>
</g>
<g>
</g>
<g>
</g>
<g>
</g>
<g>
</g>
</svg>
